# xmcd
#
# Track frame offsets:
#	150
#	18012
#	36780
#	49292
#	69340
#	84360
#	100540
#
# Disc length: 1537 seconds
# Revision: 0
# Processed by: cddbd v1.5.2PL0 Copyright (c) Steve Scherf et al.
# Submitted via: dBpowerAMP V12.0
#
DISCID=4605ff07
DTITLE=Puffy AmiYumi - SoloSolo [Disc 1]
DYEAR=1997
DGENRE=JPop
TTITLE0=Boys and Girls
TTITLE1=Love Depth
TTITLE2=Honey
TTITLE3=That's Sweet Smile
TTITLE4=Be Someone Tonight
TTITLE5=SNACKS
TTITLE6=I'm Home
EXTD=
EXTT0=
EXTT1=
EXTT2=
EXTT3=
EXTT4=
EXTT5=
EXTT6=
PLAYORDER=
